<svg width="160" height="47" viewBox="0 0 160 47" fill="none" xmlns="http://www.w3.org/2000/svg">
<g clip-path="url(#clip0)">
<path d="M26.8235 1.97754H7.66947C2.57239 1.97754 0 4.44805 0 9.34147V35.5312C0 36.1726 0.345042 36.5676 1.08843 36.5676H6.8784C7.57129 36.5676 8.01732 36.1726 8.01732 35.5312V34.5368C8.01732 32.1111 9.04123 30.789 11.5856 30.5341H26.8235C32.4143 30.5341 34.939 28.114 34.939 22.8257V9.686C34.939 4.39764 32.4143 1.97754 26.8235 1.97754ZM26.9301 20.6016C26.9301 23.4699 26.2793 24.0609 22.8625 24.0609H14.747C11.3331 24.0609 9.15344 25.1981 8.01452 27.4222V11.2686C8.01452 9.04456 8.55873 8.45074 11.2798 8.45074H22.8625C26.2793 8.45074 26.9301 9.04456 26.9301 11.91V20.6016Z" fill="white"/>
<path d="M53.2992 16.4561C48.895 16.4561 47.0127 18.6801 47.0127 22.4363V35.6292C47.0127 36.223 46.7154 36.5675 46.0225 36.5675H40.7767C40.0838 36.5675 39.7388 36.223 39.7388 35.6292V11.515C39.7388 10.9212 40.0838 10.5739 40.7767 10.5739H45.1809C45.8261 10.5739 46.1711 10.9212 46.1711 11.515V15.4057C47.0127 12.1957 49.4392 10.5627 53.7452 10.5627H55.5266C56.1689 10.5627 56.514 10.91 56.514 11.5038V15.5177C56.514 16.1592 56.1689 16.4561 55.5266 16.4561H53.2992Z" fill="white"/>
<path d="M87.4443 29.5005C87.4443 34.394 85.2675 36.5676 80.0722 36.5676H67.2046C62.0571 36.5676 59.8297 34.394 59.8297 29.5005V17.6465C59.8297 12.7559 62.0571 10.5795 67.2046 10.5795H80.0722C85.2675 10.5795 87.4443 12.7559 87.4443 17.6465V29.5005ZM80.1704 19.5204C80.1704 16.9491 79.6767 16.4561 76.6077 16.4561H70.7168C67.6002 16.4561 67.1037 16.9491 67.1037 19.5204V27.6238C67.1037 30.1924 67.6002 30.6882 70.7168 30.6882H76.6077C79.6767 30.6882 80.1704 30.1924 80.1704 27.6238V19.5204Z" fill="white"/>
<path d="M94.7688 16.4561H92.2918C91.6466 16.4561 91.3015 16.1592 91.3015 15.5178V11.5151C91.3015 10.9212 91.6466 10.5739 92.2918 10.5739H94.766V7.36393C94.7688 2.47052 97.3411 0 102.438 0H108.526C109.218 0 109.516 0.347329 109.516 0.938348V4.94103C109.516 5.58527 109.218 5.87938 108.526 5.87938H105.311C102.587 5.87938 102.043 6.4732 102.043 8.69722V10.5739H108.526C109.218 10.5739 109.516 10.9212 109.516 11.5151V15.5178C109.516 16.1592 109.218 16.4561 108.526 16.4561H102.043V35.6292C102.043 36.223 101.698 36.5676 101.005 36.5676H95.759C95.0661 36.5676 94.7688 36.223 94.7688 35.6292V16.4561Z" fill="white"/>
<path d="M114.961 16.4561H112.489C111.847 16.4561 111.502 16.1592 111.502 15.5178V11.5151C111.502 10.9212 111.847 10.5739 112.489 10.5739H114.966V7.36393C114.961 2.47052 117.539 0 122.63 0H128.718C129.41 0 129.708 0.347329 129.708 0.938348V4.94103C129.708 5.58527 129.41 5.87938 128.718 5.87938H125.5C122.779 5.87938 122.235 6.4732 122.235 8.69722V10.5739H128.718C129.41 10.5739 129.708 10.9212 129.708 11.5151V15.5178C129.708 16.1592 129.41 16.4561 128.718 16.4561H122.235V35.6292C122.235 36.223 121.887 36.5676 121.194 36.5676H115.948C115.255 36.5676 114.961 36.223 114.961 35.6292V16.4561Z" fill="white"/>
<path d="M151.827 46.6485H141.038C136.191 46.6485 134.112 44.7718 134.112 40.1249V39.6319C134.098 39.4993 134.113 39.3651 134.158 39.2394C134.203 39.1137 134.275 38.9996 134.37 38.9057C134.465 38.8118 134.58 38.7404 134.706 38.6969C134.832 38.6534 134.967 38.6388 135.099 38.6543H140.149C140.842 38.6543 141.187 39.0017 141.187 39.6431V39.8896C141.187 40.8784 141.734 41.2733 142.822 41.2733H149.058C152.026 41.2733 152.769 40.5338 152.769 38.0129V30.2176C151.631 32.4416 149.454 33.5789 146.037 33.5789H140.988C135.84 33.5789 133.562 31.4053 133.562 26.5118V11.5151C133.555 11.3856 133.577 11.2562 133.625 11.1357C133.673 11.0153 133.746 10.9066 133.841 10.8172C133.935 10.7278 134.047 10.6598 134.17 10.6178C134.293 10.5758 134.423 10.5608 134.552 10.5739H139.849C140.491 10.5739 140.839 10.9213 140.839 11.5151V24.6492C140.839 27.2177 141.383 27.7135 144.452 27.7135H148.214C151.479 27.7135 152.767 26.3774 152.767 23.6604V11.5151C152.767 10.9213 153.112 10.5739 153.757 10.5739H159.056C159.183 10.5617 159.31 10.5777 159.43 10.6207C159.55 10.6637 159.659 10.7327 159.749 10.8227C159.839 10.9127 159.907 11.0215 159.95 11.1412C159.993 11.2609 160.008 11.3886 159.996 11.5151V38.7916C159.993 43.9763 157.221 46.6485 151.827 46.6485Z" fill="white"/>
</g>
<defs>
<clipPath id="clip0">
<rect width="160" height="46.7505" fill="white"/>
</clipPath>
</defs>
</svg>
