<svg xmlns="http://www.w3.org/2000/svg" viewBox="0 0 241 241"><path d="M.116,214.869V25c1.282-5.748,1.41-11.7,5.73-16.628C12.351.952,20.725-.466,29.749-.469Q120.094-.5,210.437-.478c1.164,0,2.329-.014,3.493.036,17.38.745,26.546,11.694,26.5,28.454-.016,5.324,0,10.649,0,15.974q0,83.114-.011,166.229c0,9.025-1.42,17.4-8.842,23.906-4.931,4.321-10.879,4.449-16.627,5.731H25.1c-6.606-1.18-13.091-1.935-18.335-7.353C1.77,227.344,1.389,221.084.116,214.869Z" transform="translate(0 1.079)" style="fill:#eb598f"/><path d="M214.944,239.852c5.022-1.738,10.069-3.372,14.2-6.98,6.908-6.032,10.733-13.564,10.742-22.732q.093-90.139-.008-180.279A29.6,29.6,0,0,0,209.958.061Q120.078-.08,30.2.05C16.81.064,5.86,8.194,1.523,20.907Q.824,22.956.116,25c0-7.322.223-14.653-.1-21.96-.149-3.39.6-4.13,4.067-4.122q87.1.21,174.2.1c19.8,0,39.6.07,59.4-.081C240.45-1.081,241-.5,241,2.266q-.142,117.308-.009,234.615c0,2.555-.644,3.09-3.088,3.034C230.254,239.742,222.6,239.852,214.944,239.852Z" transform="translate(0 1.079)" style="fill:#fefefe"/><path d="M.116,214.869C2.187,221.579,5,227.8,10.493,232.561c4.284,3.714,9.423,5.491,14.6,7.291-7.494,0-14.99-.1-22.48.065-2.154.05-2.615-.411-2.566-2.565C.221,229.861.116,222.364.116,214.869Z" transform="translate(0 1.079)" style="fill:#fefdfd"/><path d="M175.141,124.426c0,14.652.039,29.3-.011,43.958-.044,12.95-6.714,19.618-19.777,19.652q-35.462.091-70.925,0c-12.738-.041-19.491-6.78-19.512-19.407q-.075-43.958,0-87.915c.021-12.393,7.024-19.35,19.561-19.552q9.239-.148,18.48.015a5.953,5.953,0,0,0,5.75-2.831c6.006-8.614,16.549-8.725,22.479-.191,1.719,2.473,3.491,3.07,6.155,3.021,5.992-.109,11.988-.1,17.98-.019,12.815.168,19.762,7.1,19.807,19.816C175.181,95.454,175.141,109.94,175.141,124.426Z" transform="translate(0 1.079)" style="fill:#fefefe"/><path d="M171.977,124.939c0,14.653.045,29.306-.016,43.958-.044,10.418-5.629,15.956-16.138,15.976q-35.962.07-71.924,0c-10.153-.025-15.8-5.652-15.815-15.79q-.081-44.457,0-88.915c.022-9.962,5.438-15.319,15.434-15.629.5-.015,1-.006,1.5-.011,10.538-.094,10.538-.094,11.57,10.1.58,5.737,3.215,8.253,9.1,8.308q14.235.132,28.47,0c6.336-.055,8.912-2.669,9.344-9.128.621-9.3.621-9.3,9.833-9.289,13.951.016,18.63,4.647,18.635,18.458Q171.983,103.959,171.977,124.939Z" transform="translate(0 1.079)" style="fill:#eb598f"/><path d="M119.934,79.789c-4.662,0-9.325-.07-13.985.025-4.15.084-6.186-1.916-6.323-5.969-.061-1.83.063-3.668-.049-5.493-.168-2.732.931-4.115,3.75-3.812,3.814.41,6.192-.682,8.23-4.519,3.75-7.062,13.762-6.744,17.414.493,1.683,3.334,3.63,4.385,6.915,4,3.428-.4,4.96.994,4.594,4.511-.172,1.648.01,3.33-.075,4.991-.191,3.765-2.037,5.823-5.987,5.78C129.591,79.745,124.762,79.785,119.934,79.789Z" transform="translate(0 1.079)" style="fill:#eb5990"/><path d="M100.352,116.8c-4.133,0-8.267.032-12.4-.026-1.281-.018-2.924.039-2.8-1.907.1-1.533,1.524-1.578,2.65-1.584q12.646-.062,25.295-.006c1.26.007,2.992-.023,2.794,1.914-.182,1.786-1.868,1.58-3.139,1.6C108.62,116.832,104.486,116.8,100.352,116.8Z" transform="translate(0 1.079)" style="fill:#fbe5ed"/><path d="M140.151,116.8c-3.968,0-7.936.037-11.9-.015-1.262-.016-2.953.22-3.116-1.6-.173-1.934,1.554-1.9,2.81-1.907q12.646-.074,25.294,0c1.124.006,2.556.048,2.633,1.592.1,1.929-1.541,1.882-2.822,1.9C148.749,116.83,144.45,116.794,140.151,116.8Z" transform="translate(0 1.079)" style="fill:#fbe5ed"/><path d="M99.517,154.222c-4.162,0-8.324.036-12.485-.025-1.079-.016-2.6.224-2.743-1.394s1.229-1.769,2.417-1.772q12.984-.029,25.968.007c1.031,0,2.153.23,2.259,1.456.151,1.742-1.329,1.673-2.432,1.687-4.327.058-8.656.024-12.984.024Z" transform="translate(0 1.079)" style="fill:#fdf6f9"/><path d="M139.7,154.223c-4.162,0-8.324.053-12.484-.029-1.2-.023-3.035.353-2.965-1.661.052-1.5,1.545-1.517,2.707-1.519q12.734-.021,25.469.014c1.188,0,2.56.134,2.461,1.732-.1,1.633-1.62,1.422-2.7,1.437C148.024,154.256,143.861,154.221,139.7,154.223Z" transform="translate(0 1.079)" style="fill:#fdf6f9"/></svg>
